<svg xmlns="http://www.w3.org/2000/svg" width="45" height="56" viewBox="0 0 45 56">
  <g fill="#FFF" fill-rule="evenodd">
    <path
      d="M34.222 27.214c2.56-2.704 4.12-6.282 4.12-10.206 0-1.957-.388-3.827-1.094-5.546a5.936 5.936 0 0 0 3.627-5.474c0-3.277-2.647-5.933-5.912-5.933a5.911 5.911 0 0 0-5.337 3.377 16.655 16.655 0 0 0-7.333-1.682c-2.641 0-5.135.607-7.333 1.682A5.911 5.911 0 0 0 9.623.055c-3.265 0-5.912 2.656-5.912 5.933a5.935 5.935 0 0 0 3.628 5.474 14.551 14.551 0 0 0-1.094 5.546c0 3.924 1.559 7.502 4.12 10.206-4.49 4.263-11.698 11.12-9.99 17.978.79 3.171 2.851 4.427 5.033 4.54.155-4.058 3.117-7.295 6.75-7.295 3.731 0 6.757 3.416 6.757 7.63 0 2.396-.98 4.534-2.512 5.933h11.78c-1.531-1.399-2.511-3.537-2.511-5.934 0-4.213 3.025-7.629 6.757-7.629 3.633 0 6.594 3.237 6.75 7.295 2.181-.113 4.242-1.369 5.032-4.54 1.709-6.858-5.5-13.715-9.99-17.978zM9.004 8.45A2.54 2.54 0 0 1 7.09 5.988a2.538 2.538 0 0 1 2.534-2.543c1.148 0 2.116.766 2.428 1.816a15.648 15.648 0 0 0-3.047 3.19zm20.046 7.285c.7 0 1.267.57 1.267 1.272a1.27 1.27 0 0 1-1.267 1.271c-.7 0-1.266-.57-1.266-1.271 0-.702.566-1.272 1.266-1.272zm-13.514 0c.7 0 1.267.57 1.267 1.272a1.27 1.27 0 0 1-1.267 1.271c-.7 0-1.267-.57-1.267-1.271 0-.702.567-1.272 1.267-1.272zm6.757 16.53c-5.598 0-10.135-3.036-10.135-6.782 0-3.745 4.537-6.781 10.135-6.781s10.136 3.036 10.136 6.781c0 3.746-4.538 6.782-10.136 6.782zM32.535 5.26a2.535 2.535 0 0 1 2.428-1.816c1.399 0 2.534 1.139 2.534 2.543a2.54 2.54 0 0 1-1.915 2.463 15.646 15.646 0 0 0-3.047-3.19z" />
    <path
      d="M15.007 50.49a2.961 2.961 0 0 1-2.956 2.967 2.961 2.961 0 0 1-2.956-2.967 2.962 2.962 0 0 1 2.956-2.967 2.962 2.962 0 0 1 2.956 2.967zM35.49 50.49a2.961 2.961 0 0 1-2.956 2.967 2.961 2.961 0 0 1-2.957-2.967 2.962 2.962 0 0 1 2.957-2.967 2.962 2.962 0 0 1 2.956 2.967zM22.293 22.094c-1.866 0-3.378.197-3.378 1.695s1.512 3.39 3.378 3.39 3.379-1.892 3.379-3.39c0-1.498-1.513-1.695-3.379-1.695z" />
  </g>
</svg>
